# xmcd
#
# Track frame offsets: 
#        150
#        18400
#        33150
#        49909
#        67189
#        90354
#        107131
#        128549
#        158268
#        175971
#        195983
#        213924
#        231055
#
# Disc length: 3305 seconds
#
# Revision: 0
# Processed by: cddbd v1.4PL0 Copyright (c) Steve Scherf et al.
# Submitted via: ExactAudioCopy v0.90b4
#
DISCID=9b0ce70d
DTITLE=Kerri Simpson - Confessin' The Blues
DYEAR=1998
DGENRE=Blues
TTITLE0=I Got Love If You Want It
TTITLE1=There Ain't Nothin' You Can Do
TTITLE2=I'm Going To Make It Somehow
TTITLE3=Times Getting Tougher Than Tough
TTITLE4=Soul On Fire
TTITLE5=Skip James
TTITLE6=Midnight Special
TTITLE7=Going Home
TTITLE8=Homeless Blues
TTITLE9=Country Walk
TTITLE10=Maybe Springtime
TTITLE11=Night Train
TTITLE12=Confessin' The Blues
EXTD=
EXTT0=
EXTT1=
EXTT2=
EXTT3=
EXTT4=
EXTT5=
EXTT6=
EXTT7=
EXTT8=
EXTT9=
EXTT10=
EXTT11=
EXTT12=
PLAYORDER=
